<svg version="1.1" xmlns="http://www.w3.org/2000/svg" xmlns:xlink="http://www.w3.org/1999/xlink" width="254.45595" height="254.06418" viewBox="0,0,254.45595,254.06418"><g transform="translate(-112.77203,-52.9679)"><g data-paper-data="{&quot;isPaintingLayer&quot;:true}" fill-rule="nonzero" stroke="none" stroke-linecap="butt" stroke-linejoin="miter" stroke-miterlimit="10" stroke-dasharray="" stroke-dashoffset="0" style="mix-blend-mode: normal"><path d="M113.16377,259.8166c0,-48.25974 0,-109.12516 0,-157.3849c0,-29.1014 13.61735,-49.46379 42.71877,-49.46379c56.15678,0 110.22154,0 166.37832,0c28.71541,0 44.96712,18.50003 44.96712,47.21544c0,54.40188 0,107.47973 0,161.88162c0,28.06108 -16.90604,44.96712 -44.96712,44.96712c-52.64699,0 -111.48296,0 -164.12995,0c-52.64699,0 -44.96712,-47.2155 -44.96712,-47.2155c0,0 -0.00002,8.23593 -0.00002,0z" fill="#000000" stroke-width="0"/><path d="M217.552,189.283c0.775,-13.88 7.539,-26.109 17.744,-34.778c10.008,-8.5143 23.479,-13.7184 38.177,-13.7184c14.683,0 28.154,5.2041 38.169,13.7184c10.198,8.669 16.962,20.898 17.744,34.763c0.774,14.262 -4.931,27.511 -14.939,37.332c-10.205,9.99 -24.72,16.259 -40.974,16.259c-16.254,0 -30.798,-6.269 -40.996,-16.259c-10.016,-9.821 -15.706,-23.07 -14.925,-37.317z" fill="#000000" stroke-width="1"/><path d="M244.782,190.529c0.397,-7.122 3.868,-13.397 9.104,-17.845c5.135,-4.369 12.047,-7.039 19.589,-7.039c7.534,0 14.446,2.67 19.584,7.039c5.233,4.448 8.704,10.723 9.105,17.837c0.397,7.318 -2.53,14.116 -7.665,19.156c-5.237,5.126 -12.684,8.342 -21.024,8.342c-8.34,0 -15.803,-3.216 -21.036,-8.342c-5.138,-5.04 -8.058,-11.838 -7.657,-19.148z" fill="#ffffff" stroke-width="1"/><path d="M199.0902,204.92c-0.0487,-2.776 0.5585,-7.401 0.5585,-7.401l-41.6583,34.258c-7.2754,5.906 -17.0621,5.895 -21.665,-0.034c-4.5354,-5.83 -2.2078,-15.042 4.9927,-20.582c0.0899,-0.072 0.1949,-0.147 0.2923,-0.219l76.3296,-58.871l-42.775,0.083l0.0112,-0.026c-7.2529,-0.027 -11.9907,-4.9377 -10.6263,-10.8583c1.3269,-5.8114 8.0326,-10.41 15.0081,-10.4176h0.1124l84.3926,-0.0904l-27.689,-22.6241l0.019,-0.0188c-4.31,-3.5516 -3.756,-9.1822 1.087,-12.5869c4.79,-3.3671 12.114,-3.3784 16.47,-0.0188c0.064,0.0414 0.112,0.0903 0.172,0.1355l66.386,51.2177l-0.015,0.0114c6.578,5.1263 12.111,11.2163 16.402,18.1723c4.693,7.57 7.741,15.875 8.993,24.726c0.641,4.542 0.787,9.088 0.438,13.626c-0.356,4.606 -1.244,9.197 -2.65,13.721c-2.796,8.952 -7.519,17.249 -14.097,24.579c-6.743,7.506 -15.053,13.558 -24.66,17.878c-10.098,4.527 -21.039,6.862 -32.385,6.877c-11.365,0.019 -22.306,-2.271 -32.404,-6.764c-9.607,-4.278 -17.924,-10.304 -24.679,-17.807c-6.5816,-7.299 -11.3118,-15.581 -14.1006,-24.533c-1.3269,-4.23 -2.2114,-9.646 -2.2602,-12.433zM306.137,220.407c4.194,-4.294 7.264,-9.212 9.168,-14.466c1.863,-5.153 2.587,-10.61 2.114,-16.116c-0.472,-5.405 -2.057,-10.527 -4.617,-15.175c-2.504,-4.564 -5.949,-8.681 -10.199,-12.161c-8.352,-6.81 -18.967,-10.474 -30.088,-10.459c-11.11,0.015 -21.732,3.714 -30.076,10.546c-4.258,3.495 -7.706,7.626 -10.21,12.199c-2.549,4.651 -4.146,9.792 -4.599,15.181c-0.48,5.514 0.243,10.979 2.106,16.128c1.9,5.239 4.982,10.157 9.176,14.432c8.583,8.772 20.6,13.71 33.622,13.687c13.003,-0.026 25.02,-5.009 33.603,-13.796z" fill="#ffffff" stroke-width="1"/></g></g></svg>