<svg version="1.1" xmlns="http://www.w3.org/2000/svg" xmlns:xlink="http://www.w3.org/1999/xlink" width="254.45595" height="254.06418" viewBox="0,0,254.45595,254.06418"><g transform="translate(-112.77203,-52.96793)"><g data-paper-data="{&quot;isPaintingLayer&quot;:true}" fill-rule="nonzero" stroke="none" stroke-linecap="butt" stroke-linejoin="miter" stroke-miterlimit="10" stroke-dasharray="" stroke-dashoffset="0" style="mix-blend-mode: normal"><path d="M113.16377,259.81662c0,-48.25974 0,-109.12516 0,-157.3849c0,-29.1014 13.61735,-49.46379 42.71877,-49.46379c56.15678,0 110.22154,0 166.37832,0c28.71541,0 44.96712,18.50003 44.96712,47.21544c0,54.40188 0,107.47973 0,161.88162c0,28.06108 -16.90604,44.96712 -44.96712,44.96712c-52.64699,0 -111.48296,0 -164.12995,0c-52.64699,0 -44.96712,-47.2155 -44.96712,-47.2155c0,0 -0.00002,8.23593 -0.00002,0z" fill="#000000" stroke-width="0"/><path d="M168.60157,215.18491c0,-23.16505 3.59235,-48.42304 11.8302,-66.99614c0.54889,0.04016 1.07101,0.05801 1.55743,0.05801c3.74407,0 7.04635,-0.37485 10.08534,-0.88805c2.84264,-0.47749 5.51124,-1.07547 8.26016,-1.64222c1.32537,-0.27222 2.69538,-0.53997 4.14124,-0.78541c0.4641,7.24717 1.92336,15.7617 5.46215,23.33017c4.88648,10.47805 14.58359,20.14837 30.06414,20.14837c11.5803,0 23.30785,-5.67635 32.39805,-14.25782c0.08479,0.12049 0.17404,0.23651 0.26775,0.35254c1.61098,2.12863 3.58788,4.80169 5.53355,7.12222c1.92336,2.28928 4.49378,5.09176 7.67557,7.28287c0.05801,0.04909 0.12495,0.08925 0.19189,0.12941c-5.1587,18.76499 -16.31059,38.85535 -28.79678,55.61666c-16.73007,22.45997 -38.04317,41.93004 -52.96591,41.93004c-29.6045,0 -35.70479,-47.15568 -35.70479,-71.40066zM288.78227,179.84158c-2.37853,-2.13756 -4.62319,-4.95788 -6.69381,-7.68003c-3.66375,-4.80169 -6.55547,-8.72427 -9.56323,-11.62492c-7.81391,10.8172 -20.47414,18.95241 -32.523,18.95241c-11.25899,0 -18.17147,-6.84108 -21.97802,-14.99414c-3.70837,-7.95671 -4.79723,-17.61811 -4.79723,-25.16873c0,-1.3343 0.10264,-2.81586 0.30792,-4.37329c-6.17169,0.32577 -10.83505,1.17365 -15.00753,2.03046c-5.28365,1.0844 -10.35756,2.34283 -16.54264,2.34283c-1.10225,0 -2.35176,-0.16511 -3.58788,-0.64707c-2.08401,-0.81665 -4.02075,-2.49456 -4.88648,-5.19886c-0.31684,-0.98622 -0.45072,-2.02153 -0.45072,-3.07469c0,-8.30479 5.14531,-17.26111 12.86997,-23.93707c7.85407,-6.79645 18.90779,-11.76326 31.75545,-11.76326c12.45495,0 25.71763,7.25163 32.60779,18.58202c6.80091,-15.58319 17.82785,-28.60043 31.48769,-39.87281l5.68082,6.8857c-12.92798,10.66101 -22.95978,22.66971 -29.06007,36.72225c13.32069,0.14726 26.23528,3.85117 36.00825,10.50929c10.03179,6.83661 16.9889,17.01121 16.9889,29.64913c0,4.0386 -0.8345,9.233 -2.21342,13.79372c-1.23166,4.09215 -3.35583,9.33564 -7.00173,11.70525c-1.12902,0.73186 -2.53919,1.28075 -4.17248,1.28075c-3.78424,-0.01339 -6.87231,-2.00368 -9.22854,-4.11893z" fill="#ffffff" stroke-width="1"/></g></g></svg>