<svg version="1.1" xmlns="http://www.w3.org/2000/svg" xmlns:xlink="http://www.w3.org/1999/xlink" width="254.45595" height="254.06418" viewBox="0,0,254.45595,254.06418"><defs><clipPath id="clip-1"><path d="M140,280v-200h200v200z" fill="none"/></clipPath></defs><g transform="translate(-112.77203,-52.96791)"><g data-paper-data="{&quot;isPaintingLayer&quot;:true}" fill-rule="nonzero" stroke="none" stroke-linecap="butt" stroke-linejoin="miter" stroke-miterlimit="10" stroke-dasharray="" stroke-dashoffset="0" style="mix-blend-mode: normal"><path d="M113.16377,259.81661c0,-48.25974 0,-109.12516 0,-157.3849c0,-29.1014 13.61735,-49.46379 42.71877,-49.46379c56.15678,0 110.22154,0 166.37832,0c28.71541,0 44.96712,18.50003 44.96712,47.21544c0,54.40188 0,107.47973 0,161.88162c0,28.06108 -16.90604,44.96712 -44.96712,44.96712c-52.64699,0 -111.48296,0 -164.12995,0c-52.64699,0 -44.96712,-47.2155 -44.96712,-47.2155c0,0 -0.00002,8.23593 -0.00002,0z" fill="#000000" stroke-width="0"/><g clip-path="url(#clip-1)" stroke-width="1"><path d="M336.225,171.156c1.197,1.196 2.147,2.616 2.795,4.179c0.648,1.563 0.981,3.239 0.981,4.931c0,1.692 -0.333,3.367 -0.981,4.93c-0.648,1.563 -1.598,2.983 -2.795,4.179l-86.919,86.781c-1.195,1.196 -2.615,2.145 -4.177,2.793c-1.563,0.647 -3.238,0.98 -4.929,0.98c-1.691,0 -3.366,-0.333 -4.929,-0.98c-1.562,-0.648 -2.982,-1.597 -4.177,-2.793l-87.3253,-87.312c-1.1971,-1.196 -2.1468,-2.616 -2.7948,-4.179c-0.648,-1.563 -0.9815,-3.239 -0.9815,-4.931c0,-1.692 0.3335,-3.367 0.9815,-4.93c0.648,-1.563 1.5977,-2.983 2.7948,-4.179l59.875,-59.8125l22.6873,22.675c-1.176,2.8049 -1.49,5.8966 -0.903,8.8809c0.588,2.9842 2.051,5.7259 4.203,7.8753c1.481,1.4875 3.194,2.5933 5.019,3.3433v54.913c-1.894,0.75 -3.538,1.869 -5.019,3.344c-1.425,1.422 -2.555,3.111 -3.326,4.971c-0.772,1.86 -1.169,3.853 -1.169,5.866c0,2.013 0.397,4.007 1.169,5.867c0.771,1.859 1.901,3.548 3.326,4.971c1.423,1.423 3.113,2.552 4.973,3.322c1.859,0.77 3.852,1.167 5.865,1.167c2.012,0 4.005,-0.397 5.865,-1.167c1.859,-0.77 3.549,-1.899 4.972,-3.322c1.423,-1.423 2.552,-3.113 3.323,-4.973c0.77,-1.859 1.166,-3.852 1.166,-5.865c0,-2.013 -0.396,-4.006 -1.166,-5.865c-0.771,-1.86 -1.9,-3.549 -3.323,-4.972c-1.19,-1.178 -2.561,-2.158 -4.062,-2.9v-54.407l20.675,20.675c-2.275,5.544 -1.163,12.169 3.337,16.669c1.423,1.424 3.113,2.553 4.973,3.324c1.859,0.77 3.853,1.167 5.866,1.167c2.013,0.001 4.006,-0.395 5.866,-1.166c1.86,-0.77 3.55,-1.898 4.973,-3.322c1.424,-1.423 2.553,-3.113 3.324,-4.972c0.771,-1.86 1.167,-3.853 1.168,-5.866c0,-2.013 -0.396,-4.006 -1.166,-5.866c-0.77,-1.86 -1.899,-3.55 -3.323,-4.974c-4.281,-4.294 -10.468,-5.487 -15.831,-3.637l-22.169,-22.169c0.941,-2.7138 1.099,-5.6374 0.457,-8.4368c-0.642,-2.7994 -2.059,-5.3618 -4.088,-7.3945c-4.262,-4.2625 -10.387,-5.5437 -15.737,-3.6687l-23,-23l18.125,-18.125c1.195,-1.1963 2.615,-2.1452 4.177,-2.7926c1.563,-0.6475 3.238,-0.9807 4.929,-0.9807c1.691,0 3.366,0.3332 4.929,0.9807c1.562,0.6474 2.982,1.5963 4.177,2.7926l87.319,87.319" fill="#ffffff"/></g></g></g></svg>