<svg version="1.1" xmlns="http://www.w3.org/2000/svg" xmlns:xlink="http://www.w3.org/1999/xlink" width="254.45595" height="254.06418" viewBox="0,0,254.45595,254.06418"><g transform="translate(-112.77203,-52.96791)"><g data-paper-data="{&quot;isPaintingLayer&quot;:true}" fill-rule="nonzero" stroke="none" stroke-linecap="butt" stroke-linejoin="miter" stroke-miterlimit="10" stroke-dasharray="" stroke-dashoffset="0" style="mix-blend-mode: normal"><path d="M113.16377,259.81661c0,-48.25974 0,-109.12516 0,-157.3849c0,-29.1014 13.61735,-49.46379 42.71877,-49.46379c56.15678,0 110.22154,0 166.37832,0c28.71541,0 44.96712,18.50003 44.96712,47.21544c0,54.40188 0,107.47973 0,161.88162c0,28.06108 -16.90604,44.96712 -44.96712,44.96712c-52.64699,0 -111.48296,0 -164.12995,0c-52.64699,0 -44.96712,-47.2155 -44.96712,-47.2155c0,0 -0.00002,8.23593 -0.00002,0z" fill="#000000" stroke-width="0"/><path d="M320,90l-2.861,31.9448h-0.098h-122.14l2.9231,32.7102h116.4199l-8.783,98.061l-65.51,18.172l-65.4274,-18.172l-4.5847,-51.281h32.0623l2.3788,26.602l35.579,9.624l35.646,-9.638l3.715,-41.43h-110.7102l-8.6098,-96.593z" fill="#ffffff" stroke-width="1"/><path d="M240,121.9448h-45.099l2.9231,32.7102h42.1759v31.938h-71.3902l-8.6098,-96.593h80z" fill="#ffffff" stroke-width="1"/><path d="M240,270.874l-0.049,0.014l-65.4274,-18.172l-4.5848,-51.281h32.0624l2.3788,26.602l35.579,9.624l0.041,-0.014z" fill="#ffffff" stroke-width="1"/></g></g></svg>