<svg version="1.1" xmlns="http://www.w3.org/2000/svg" xmlns:xlink="http://www.w3.org/1999/xlink" width="254.45595" height="254.06418" viewBox="0,0,254.45595,254.06418"><g transform="translate(-112.77203,-52.96791)"><g data-paper-data="{&quot;isPaintingLayer&quot;:true}" fill-rule="nonzero" stroke="none" stroke-linecap="butt" stroke-linejoin="miter" stroke-miterlimit="10" stroke-dasharray="" stroke-dashoffset="0" style="mix-blend-mode: normal"><path d="M113.16377,259.81661c0,-48.25974 0,-109.12516 0,-157.3849c0,-29.1014 13.61735,-49.46379 42.71877,-49.46379c56.15678,0 110.22154,0 166.37832,0c28.71541,0 44.96712,18.50003 44.96712,47.21544c0,54.40188 0,107.47973 0,161.88162c0,28.06108 -16.90604,44.96712 -44.96712,44.96712c-52.64699,0 -111.48296,0 -164.12995,0c-52.64699,0 -44.96712,-47.2155 -44.96712,-47.2155c0,0 -0.00002,8.23593 -0.00002,0z" fill="#000000" stroke-width="0"/><path d="M288.239,107.5461v43.8662c0,26.5297 -26.999,26.0937 -26.999,26.0937h-48.054c-28.817,0 -27.9048,28.357 -27.9048,28.357v23.773h-16.9239c0,0 -28.3573,1.816 -28.3573,-49.414c0,-51.2294 32.4893,-47.5448 32.4893,-47.5448h67.6957v-6.8488h-48.4512l-0.0566,-22.8104c0,0 -3.1706,-22.018 47.6018,-22.018c53.059,0 48.96,26.5461 48.96,26.5461zM203.8465,105.0556c0,4.8205 3.8961,8.7167 8.7165,8.7167c4.821,0 8.717,-3.8962 8.717,-8.7167c0,-4.8205 -3.896,-8.7166 -8.717,-8.7166c-4.8204,0 -8.7165,3.8961 -8.7165,8.7166z" fill="#ffffff" stroke-width="1"/><path d="M191.7607,253.412v-43.866c0,-26.53 26.9993,-26.093 26.9993,-26.093h48.054c28.817,0 27.905,-28.357 27.905,-28.357v-23.773h16.924c0,0 28.357,-1.8168 28.357,49.413c0,51.23 -32.489,47.545 -32.489,47.545h-67.696v6.849h48.451l0.057,22.811c0,0 3.17,22.017 -47.602,22.017c-53.0595,0 -48.9603,-26.546 -48.9603,-26.546zM276.154,255.903c0,-4.821 -3.897,-8.717 -8.717,-8.717c-4.821,0 -8.717,3.896 -8.717,8.717c0,4.82 3.896,8.716 8.717,8.716c4.82,0 8.717,-3.896 8.717,-8.716z" fill="#ffffff" stroke-width="1"/></g></g></svg>