<svg version="1.1" xmlns="http://www.w3.org/2000/svg" xmlns:xlink="http://www.w3.org/1999/xlink" width="254.45595" height="254.06418" viewBox="0,0,254.45595,254.06418"><g transform="translate(-112.77203,-52.96791)"><g data-paper-data="{&quot;isPaintingLayer&quot;:true}" fill-rule="nonzero" stroke="none" stroke-linecap="butt" stroke-linejoin="miter" stroke-miterlimit="10" stroke-dasharray="" stroke-dashoffset="0" style="mix-blend-mode: normal"><path d="M113.16377,259.81661c0,-48.25974 0,-109.12516 0,-157.3849c0,-29.1014 13.61735,-49.46379 42.71877,-49.46379c56.15678,0 110.22154,0 166.37832,0c28.71541,0 44.96712,18.50003 44.96712,47.21544c0,54.40188 0,107.47973 0,161.88162c0,28.06108 -16.90604,44.96712 -44.96712,44.96712c-52.64699,0 -111.48296,0 -164.12995,0c-52.64699,0 -44.96712,-47.2155 -44.96712,-47.2155c0,0 -0.00002,8.23593 -0.00002,0z" fill="#000000" stroke-width="0"/><path d="M202.579,81.0022c1.984,-0.059 3.669,1.097 5.503,1.653c4.475,-1.401 5.497,0.517 7.694,1.299c4.877,-0.988 6.359,1.16 8.701,3.43l2.72,-0.049c7.356,4.151 11.001,12.611 12.299,16.962c1.294,-4.349 4.948,-12.81 12.305,-16.962l2.72,0.051c2.339,-2.27 3.822,-4.42 8.7,-3.432c2.196,-0.782 3.219,-2.701 7.692,-1.299c2.791,-0.847 5.238,-3.086 8.931,-0.293c3.111,-1.149 6.129,-1.548 8.825,0.79c4.165,-0.517 5.52,0.551 6.547,1.799c0.913,-0.017 6.84,-0.9 9.558,2.984c6.834,-0.774 8.991,3.849 6.546,8.162c1.393,2.07 2.842,4.115 -0.423,8.058c1.155,2.198 0.441,4.582 -2.279,7.466c0.717,3.089 -0.693,5.27 -3.222,6.966c0.474,4.23 -4.047,6.686 -5.396,7.563c-0.519,2.463 -1.598,4.787 -6.759,6.072c-0.85,3.67 -3.954,4.306 -6.958,5.076c9.929,5.529 18.443,12.806 18.385,30.6558l1.454,2.484c11.387,6.635 21.628,27.957 5.613,45.287c-1.048,5.425 -2.802,9.32 -4.364,13.631c-2.335,17.379 -17.585,25.515 -21.607,26.478c-5.895,4.3 -12.171,8.382 -20.666,11.24c-8.005,7.914 -16.681,10.93 -25.406,10.926h-0.384c-8.723,0.003 -17.399,-3.012 -25.406,-10.926c-8.494,-2.86 -14.771,-6.94 -20.666,-11.24c-4.021,-0.963 -19.27,-9.099 -21.608,-26.476c-1.562,-4.313 -3.314,-8.208 -4.362,-13.633c-16.016,-17.33 -5.775,-38.649 5.611,-45.283l1.456,-2.487c-0.059,-17.8508 8.454,-25.1238 18.383,-30.6558c-3.004,-0.769 -6.108,-1.402 -6.955,-5.076c-5.164,-1.283 -6.244,-3.609 -6.762,-6.071c-1.35,-0.874 -5.869,-3.334 -5.395,-7.56c-2.53,-1.699 -3.94,-3.879 -3.222,-6.966c-2.72,-2.887 -3.435,-5.27 -2.281,-7.467c-3.264,-3.947 -1.816,-5.989 -0.423,-8.061c-2.446,-4.31 -0.285,-8.935 6.546,-8.161c2.718,-3.886 8.646,-3.003 9.56,-2.984c1.025,-1.249 2.379,-2.317 6.545,-1.8c2.697,-2.339 5.713,-1.94 8.825,-0.791c1.27,-0.96 2.389,-1.328 3.428,-1.359z" fill="#ffffff" stroke-width="1"/><path d="M188.0822,99.2811c19.519,9.639 30.8638,17.441 37.0818,24.085c-3.183,12.225 -19.7908,12.782 -25.8648,12.439c1.245,-0.554 2.282,-1.219 2.65,-2.238c-1.524,-1.037 -6.926,-0.109 -10.699,-2.141c1.449,-0.288 2.127,-0.568 2.805,-1.591c-3.565,-1.09 -7.403,-2.029 -9.661,-3.834c1.219,0.017 2.356,0.263 3.948,-0.796c-3.193,-1.648 -6.599,-2.953 -9.244,-5.473c1.646,-0.038 3.428,-0.017 3.946,-0.597c-2.922,-1.733 -5.387,-3.663 -7.426,-5.771c2.31,0.266 3.284,0.037 3.844,-0.351c-2.21,-2.166 -5.005,-3.996 -6.338,-6.666c1.715,0.566 3.284,0.783 4.415,-0.051c-0.752,-1.622 -3.965,-2.579 -5.818,-6.368c1.806,0.166 3.721,0.377 4.102,0c-0.836,-3.272 -2.273,-5.112 -3.684,-7.015c3.863,-0.056 9.717,0.012 9.452,-0.302l-2.39,-2.336c3.775,-0.975 7.637,0.157 10.441,0.994c1.258,-0.951 -0.022,-2.153 -1.557,-3.385c3.207,0.411 6.104,1.119 8.722,2.092c1.401,-1.211 -0.907,-2.421 -2.024,-3.634c4.955,0.902 7.055,2.167 9.14,3.436c1.515,-1.392 0.087,-2.572 -0.933,-3.782c3.735,1.325 5.659,3.038 7.687,4.727c0.687,-0.89 1.7428,-1.541 0.467,-3.683c2.6508,1.465 4.6488,3.192 6.1268,5.125c1.641,-1.002 0.978,-2.372 0.988,-3.633c2.757,2.149 4.505,4.434 6.649,6.669c0.428,-0.3 0.806,-1.322 1.141,-2.936c6.576,6.113 15.87,21.513 2.388,27.618c-11.473,-9.065 -25.1758,-15.657 -40.3598,-20.602h0.003zM291.464,99.2811c-19.517,9.641 -30.865,17.439 -37.081,24.085c3.185,12.225 19.793,12.782 25.864,12.439c-1.244,-0.554 -2.28,-1.219 -2.647,-2.238c1.523,-1.037 6.927,-0.109 10.698,-2.141c-1.449,-0.288 -2.128,-0.568 -2.804,-1.591c3.563,-1.09 7.402,-2.029 9.66,-3.834c-1.219,0.017 -2.358,0.263 -3.949,-0.796c3.193,-1.648 6.599,-2.953 9.247,-5.473c-1.652,-0.038 -3.43,-0.017 -3.948,-0.597c2.923,-1.733 5.388,-3.663 7.428,-5.771c-2.311,0.266 -3.285,0.037 -3.845,-0.351c2.209,-2.166 5.004,-3.996 6.337,-6.666c-1.715,0.566 -3.283,0.783 -4.415,-0.051c0.751,-1.622 3.965,-2.579 5.818,-6.368c-1.808,0.166 -3.721,0.377 -4.105,0c0.841,-3.272 2.276,-5.113 3.688,-7.017c-3.863,-0.055 -9.718,0.012 -9.453,-0.3l2.392,-2.336c-3.777,-0.976 -7.639,0.155 -10.441,0.992c-1.26,-0.951 0.024,-2.153 1.556,-3.384c-3.204,0.411 -6.104,1.119 -8.722,2.092c-1.401,-1.212 0.908,-2.421 2.024,-3.634c-4.955,0.902 -7.053,2.167 -9.141,3.433c-1.513,-1.389 -0.085,-2.57 0.934,-3.779c-3.736,1.325 -5.66,3.038 -7.686,4.724c-0.686,-0.888 -1.744,-1.539 -0.467,-3.683c-2.652,1.467 -4.651,3.192 -6.129,5.127c-1.641,-1.002 -0.977,-2.372 -0.988,-3.632c-2.754,2.148 -4.505,4.435 -6.647,6.669c-0.43,-0.3 -0.808,-1.322 -1.142,-2.937c-6.577,6.113 -15.87,21.513 -2.389,27.619c11.469,-9.07 25.168,-15.659 40.356,-20.602h-0.003" fill="#000000" stroke-width="1"/><path d="M263.379,223.774c0.068,11.408 -10.345,20.706 -23.257,20.767c-12.913,0.06 -23.435,-9.139 -23.504,-20.549v-0.218c-0.069,-11.409 10.344,-20.707 23.256,-20.767c12.914,-0.06 23.436,9.139 23.505,20.548v0.217zM226.925,164.763c9.686,6.081 11.432,19.866 3.9,30.789c-7.535,10.923 -21.4942,14.849 -31.1832,8.767c-9.686,-6.081 -11.433,-19.868 -3.899,-30.789c7.533,-10.925 21.4932,-14.849 31.1822,-8.767zM253.072,163.661c-9.688,6.083 -11.434,19.866 -3.9,30.791c7.534,10.921 21.494,14.849 31.18,8.765c9.69,-6.081 11.434,-19.866 3.901,-30.789c-7.535,-10.921 -21.493,-14.848 -31.181,-8.765zM179.1049,174.769c10.458,-2.688 3.53,41.46 -4.9781,37.839c-9.363,-7.215 -12.379,-28.343 4.976,-37.839zM299.978,174.219c-10.461,-2.685 -3.533,41.463 4.979,37.841c9.361,-7.216 12.375,-28.345 -4.979,-37.841zM264.897,141.2812c18.051,-2.921 33.069,7.353 32.463,26.1078c-0.594,7.189 -39.114,-25.0388 -32.463,-26.1098zM215.025,140.7302c-18.0531,-2.921 -33.0722,7.356 -32.4652,26.1088c0.594,7.189 39.1152,-25.0398 32.4652,-26.1088zM239.891,136.3562c-10.771,-0.268 -21.11,7.663 -21.137,12.259c-0.028,5.5898 8.518,11.3108 21.213,11.4568c12.961,0.088 21.232,-4.58 21.274,-10.3468c0.047,-6.534 -11.79,-13.469 -21.35,-13.369zM240.724,250.957c9.393,-0.394 21.998,2.898 22.021,7.264c0.157,4.24 -11.43,13.82 -22.644,13.636c-11.613,0.481 -23.001,-9.115 -22.851,-12.44c-0.175,-4.877 14.142,-8.683 23.474,-8.46zM205.9638,225.078c6.6862,7.72 9.7332,21.282 4.1551,25.279c-5.279,3.053 -18.102,1.796 -27.217,-10.749c-6.144,-10.524 -5.3511,-21.236 -1.0361,-24.384c6.453,-3.766 16.424,1.322 24.096,9.854zM273.293,222.63c-7.237,8.122 -11.266,22.931 -5.988,27.701c5.046,3.707 18.594,3.188 28.603,-10.117c7.267,-8.936 4.831,-23.857 0.681,-27.82c-6.166,-4.571 -15.017,1.278 -23.297,10.233v0.003" fill="#000000" stroke-width="1"/></g></g></svg>