<svg version="1.1" xmlns="http://www.w3.org/2000/svg" xmlns:xlink="http://www.w3.org/1999/xlink" width="254.45595" height="254.06418" viewBox="0,0,254.45595,254.06418"><defs><clipPath id="clip-1"><path d="M140,254.909v-149.909h200v149.909z"/></clipPath></defs><g transform="translate(-112.77203,-52.96791)"><g data-paper-data="{&quot;isPaintingLayer&quot;:true}" fill-rule="nonzero" stroke="none" stroke-linecap="butt" stroke-linejoin="miter" stroke-miterlimit="10" stroke-dasharray="" stroke-dashoffset="0" style="mix-blend-mode: normal"><path d="M113.16377,259.81661c0,-48.25974 0,-109.12516 0,-157.3849c0,-29.1014 13.61735,-49.46379 42.71877,-49.46379c56.15678,0 110.22154,0 166.37832,0c28.71541,0 44.96712,18.50003 44.96712,47.21544c0,54.40188 0,107.47973 0,161.88162c0,28.06108 -16.90604,44.96712 -44.96712,44.96712c-52.64699,0 -111.48296,0 -164.12995,0c-52.64699,0 -44.96712,-47.2155 -44.96712,-47.2155c0,0 -0.00002,8.23593 -0.00002,0z" fill="#000000" stroke-width="0"/><g clip-path="url(#clip-1)" fill="#ffffff" stroke-width="1"><path d="M339.854,213.507c-0.329,8.397 -8.032,11.829 -9.456,12.084c-1.022,0.146 -1.606,0.183 -1.752,-0.62c-0.11,-0.548 0.292,-0.803 1.496,-1.57c1.205,-0.767 4.856,-3.25 5.513,-7.813c0.658,-4.564 -2.774,-15.407 -20.153,-17.452c-8.105,-0.949 -14.458,0.183 -19.387,2.227c0.913,2.373 1.57,4.82 1.68,7.302c0.219,5.44 -3.542,9.456 -7.448,12.34c-2.3,1.68 -4.71,2.812 -6.754,3.469c-1.607,0.694 -3.797,1.424 -5.331,1.095c-3.395,-0.694 -5.184,-3.687 -2.884,-10.332c1.278,-3.578 4.856,-9.054 10.661,-13.764c-1.315,-2.702 -2.812,-5.477 -3.542,-8.032c-1.497,-5.039 -1.935,-8.069 -1.935,-8.069c0,0 -4.782,9.894 -10.953,18.912c-0.365,0.511 -0.693,1.022 -1.058,1.533c1.204,2.812 2.19,5.805 2.3,8.799c0.219,5.44 -2.154,9.566 -6.061,12.45c-2.117,1.57 -4.381,2.629 -6.316,3.322c-1.241,0.548 -3.761,1.424 -7.339,1.68c-1.935,0.109 -3.833,0 -4.892,-0.803c-1.46,-1.096 -1.643,-2.446 -0.876,-4.308c0.657,-1.57 5.403,-7.01 9.383,-11.757c1.132,-1.314 2.154,-2.665 3.103,-3.906c-0.036,-0.037 -0.036,-0.037 -0.036,-0.037c0,0 0.73,-0.912 1.898,-2.555c-1.46,-3.14 -3.286,-6.389 -4.162,-9.347c-1.497,-5.038 -1.935,-8.068 -1.935,-8.068c0,0 -4.856,12.413 -9.894,22.343c-3.907,7.704 -6.535,12.341 -7.704,14.385c0,0.037 0,0.073 0,0.073c0,0 -0.182,0.292 -0.474,0.767c-0.146,0.256 -0.219,0.365 -0.219,0.365c0,0 0,0 0,-0.036c-1.315,1.935 -4.272,5.732 -7.193,5.732c-8.032,0 -5.074,-16.284 -5.074,-16.284c0,0 -2.374,6.024 -5.002,11.209c-2.154,4.235 -4.089,7.813 -8.3975,7.813c-1.2413,0 -3.1763,-0.037 -4.8193,-1.57c-3.6875,-3.505 -6.4987,-12.413 -5.9511,-19.277c0.4382,-5.842 1.3509,-9.894 2.5922,-13.29c-2.1906,1.169 -4.7462,2.593 -7.3384,4.126c-1.3144,0.767 -2.6652,1.57 -3.9796,2.337c0.0731,0.073 0.1096,0.146 0.1461,0.219c3.3224,6.389 4.1986,20.335 -2.9938,31.069c-7.1924,10.734 -20.5915,17.233 -33.6254,13.618c-4.1986,-1.168 -10.5513,-9.857 -5.0749,-21.978c4.8193,-10.698 24.1694,-20.811 29.2443,-23.33c0.4016,-0.219 0.8762,-0.475 1.3873,-0.767c-10.1496,-8.872 -35.5239,-20.847 -39.0653,-39.248c-0.9858,-5.184 1.4239,-17.5608 16.6484,-31.7996c12.8149,-11.9752 30.6316,-21.1756 47.061,-27.0172c27.638,-9.8211 56.846,-4.016 61.263,13.5816c4.418,17.3421 -10.624,38.0432 -29.865,45.4912c-17.196,6.645 -31.398,5.586 -37.2396,3.687c-6.6082,-2.154 -10.5148,-6.535 -11.464,-9.018c-0.3651,-0.949 -1.0223,-2.592 0,-3.139c0.6207,-0.365 0.8762,-0.256 2.5557,1.57c1.6064,1.752 7.9591,6.425 20.0803,5.074c31.7636,-3.578 50.9306,-28.2581 44.8706,-41.5476c-4.235,-9.31 -28.697,-13.5086 -59.438,1.6429c-37.3494,18.62 -39.3574,33.9537 -39.686,39.7957c-0.8762,16.028 19.7883,24.461 30.9602,36.4c0.1461,0.146 0.2921,0.329 0.4381,0.475c2.0811,-1.132 4.3082,-2.337 6.4622,-3.542c5.659,-3.103 10.9529,-5.987 13.4356,-7.338c3.943,-5.696 11.9019,-12.012 17.6709,-12.012c9.237,0 6.06,13.217 6.06,13.217c0,0 0.183,-0.621 0.438,-0.621c0.256,0 1.278,-1.753 4.126,-0.694c2.921,1.059 2.264,3.104 2.264,3.323c0.036,0.401 -3.432,12.157 -4.893,19.715c-0.693,3.578 -0.292,6.206 -0.073,6.206c0.292,0 0.877,-0.912 1.424,-1.898c0,-0.037 0,-0.037 0,-0.037c0,0 0.402,-0.73 1.096,-2.081c0.109,-0.182 0.146,-0.292 0.146,-0.292c0.803,-1.57 1.935,-3.87 3.249,-6.754c2.556,-5.622 12.304,-27.382 13.143,-29.792c0.84,-2.409 1.278,-4.892 1.68,-5.951c0.401,-1.059 3.87,-1.862 7.886,-1.825c4.016,0.036 4.418,1.752 4.454,2.117c0.037,0.365 -1.935,5.148 -2.373,8.507c-0.438,3.359 0,5.075 0.365,7.886c0.256,1.862 1.424,4.199 2.775,6.864c4.198,-6.827 11.537,-19.861 12.231,-23.512c0.511,-2.483 1.277,-4.893 1.679,-5.951c0.402,-1.059 3.87,-1.862 7.886,-1.826c4.016,0.037 4.418,1.752 4.454,2.118c0.037,0.365 -1.935,5.147 -2.373,8.506c-0.438,3.359 0,5.075 0.365,7.886c0.329,2.41 2.191,5.696 4.053,9.383c5.075,-2.482 11.135,-4.162 18.109,-4.198c18.072,-0.11 28.295,11.61 27.747,22.344zM183.9942,211.9c-0.2921,0.183 -0.5842,0.365 -0.8762,0.548c0,0 -0.1461,0.073 -0.4016,0.219c-1.4969,0.913 -2.7383,1.643 -3.578,2.154c-3.6875,2.3 -9.2369,6.061 -13.5451,10.113c-7.0828,6.645 -8.5432,15.918 -4.8192,18.073c3.4684,2.008 11.5005,-0.366 17.269,-6.645c6.0606,-6.608 8.5433,-14.969 5.9511,-24.462zM225.104,189.301c-0.84,-1.424 -4.308,-0.256 -7.448,3.249c-1.935,2.191 -5.257,7.813 -6.8272,12.523c-3.1033,9.383 -1.7525,18.875 0.4381,19.46c2.5561,0.693 6.7541,-11.829 8.7621,-16.722c1.242,-3.067 6.134,-16.648 5.075,-18.51zM262.49,213.507c0,-0.146 0,-0.329 0,-0.475c-1.241,1.643 -2.41,3.103 -3.395,4.345c-1.716,2.117 -6.061,6.791 -6.061,6.791c0,0 -0.621,0.584 -0.365,0.73c0.365,0.219 1.168,-0.073 2.008,-0.511c2.41,-1.534 7.813,-5.294 7.813,-10.88zM289.507,207.519c0.037,-1.059 -0.219,-2.19 -0.584,-3.359c-3.249,2.885 -5.148,5.878 -5.951,7.667c-2.081,4.564 -2.191,6.024 -1.57,6.462c3.03,-1.095 8.069,-3.723 8.105,-10.77z"/></g></g></g></svg>