<svg version="1.1" xmlns="http://www.w3.org/2000/svg" xmlns:xlink="http://www.w3.org/1999/xlink" width="254.45595" height="254.06418" viewBox="0,0,254.45595,254.06418"><g transform="translate(-112.77203,-52.96791)"><g data-paper-data="{&quot;isPaintingLayer&quot;:true}" fill-rule="nonzero" stroke="none" stroke-linecap="butt" stroke-linejoin="miter" stroke-miterlimit="10" stroke-dasharray="" stroke-dashoffset="0" style="mix-blend-mode: normal"><path d="M113.16377,259.81661c0,-48.25974 0,-109.12516 0,-157.3849c0,-29.1014 13.61735,-49.46379 42.71877,-49.46379c56.15678,0 110.22154,0 166.37832,0c28.71541,0 44.96712,18.50003 44.96712,47.21544c0,54.40188 0,107.47973 0,161.88162c0,28.06108 -16.90604,44.96712 -44.96712,44.96712c-52.64699,0 -111.48296,0 -164.12995,0c-52.64699,0 -44.96712,-47.2155 -44.96712,-47.2155c0,0 -0.00002,8.23593 -0.00002,0z" fill="#000000" stroke-width="0"/><path d="M297.225,202.027v-36.608c0,-1.241 -1.654,-2.069 -2.688,-1.448l-37.643,21.717c-1.241,0.62 -1.861,1.861 -1.861,3.102v43.433c0,1.241 1.655,2.068 2.689,1.448l31.644,-18.201l31.024,17.787l-80.662,46.536l-80.6619,-46.536l31.0238,-17.787l31.6441,18.201c1.241,0.827 2.689,-0.207 2.689,-1.448v-43.433c0,-1.241 -0.827,-2.482 -1.862,-3.102l-37.6417,-21.717c-1.241,-0.827 -2.6888,0.207 -2.6888,1.448v36.608l-31.0237,17.787v-0.414v0.414v-93.2784l80.6622,-46.5356v35.7807l-31.6447,18.2006c-1.2409,0.6205 -1.2409,2.4819 0,3.1024l37.6417,21.9233c1.035,0.621 2.482,0.621 3.516,0l37.643,-21.7165c1.241,-0.6204 1.241,-2.4819 0,-3.1023l-31.645,-18.2006v-35.7808l80.662,46.5357v93.0715z" fill="#cccccc" stroke-width="1"/><path d="M239.521,177.828l88.521,-51.0853v93.2783l-31.023,-17.787v-36.608c0,-1.241 -1.655,-2.068 -2.689,-1.448l-37.642,21.717c-1.241,0.62 -1.862,1.861 -1.862,3.102v43.433c0,1.241 1.655,2.069 2.689,1.448l31.644,-18.201l31.024,17.787l-80.662,46.536z" fill="#ffffff" stroke-width="1"/><path d="M328.249,126.5356l-88.521,51.0854l-88.5212,-51.0854l80.6622,-46.5356v35.7807l-31.6447,18.2006c-1.2409,0.6205 -1.2409,2.4819 0,3.1024l37.4357,21.7163c1.034,0.621 2.482,0.621 3.516,0l37.642,-21.7163c1.241,-0.6205 1.241,-2.4819 0,-3.1024l-31.644,-18.2006v-35.7807z" fill="#ffffff" stroke-width="1"/><path d="M224.216,232.43v-43.433c0,-1.241 -0.827,-2.482 -1.861,-3.102l-37.6425,-21.717c-1.241,-0.827 -2.6888,0.207 -2.6888,1.448v36.608l-31.0237,17.787v-0.414v0.414v-93.2783l88.314,50.8793v102.171l-80.6615,-46.535l31.0238,-17.787l31.6437,18.2c1.241,0.621 2.689,-0.207 2.896,-1.241z" fill="#ffffff" stroke-width="1"/></g></g></svg>