<svg version="1.1" xmlns="http://www.w3.org/2000/svg" xmlns:xlink="http://www.w3.org/1999/xlink" width="254.45594" height="254.06419" viewBox="0,0,254.45594,254.06419"><g transform="translate(-112.77203,-52.96791)"><g data-paper-data="{&quot;isPaintingLayer&quot;:true}" stroke="none" stroke-linecap="butt" stroke-linejoin="miter" stroke-miterlimit="10" stroke-dasharray="" stroke-dashoffset="0" style="mix-blend-mode: normal"><path d="M113.16377,259.8166c0,-48.25974 0,-109.12516 0,-157.3849c0,-29.1014 13.61735,-49.46379 42.71877,-49.46379c56.15678,0 110.22154,0 166.37832,0c28.71541,0 44.96712,18.50003 44.96712,47.21544c0,54.40188 0,107.47973 0,161.88162c0,28.06108 -16.90604,44.96712 -44.96712,44.96712c-52.64699,0 -111.48296,0 -164.12995,0c-52.64699,0 -44.96712,-47.2155 -44.96712,-47.2155c0,0 -0.00002,8.23593 -0.00002,0z" fill="#000000" fill-rule="nonzero" stroke-width="0"/><path d="M131,188.512v-16.417c0.3442,-0.171 0.3442,-0.513 0.3442,-0.855c5.1632,-22.4024 19.2759,-35.9125 41.6497,-41.2139c1.8932,-0.513 3.9585,-0.342 5.8516,-1.0261h11.0148c0.1721,0.3421 0.6884,0.1711 1.0327,0.1711c11.0148,1.1971 20.9969,5.1304 29.774,11.9709c7.573,5.6434 13.425,12.826 18.76,20.521c0.688,1.026 1.033,1.026 1.721,0c3.098,-4.446 6.368,-8.721 10.154,-12.6544c9.122,-9.7477 20.137,-16.5883 33.561,-18.9825c1.893,-0.513 4.13,-0.342 6.024,-1.0261h10.67c0.172,0.3421 0.517,0.1711 0.861,0.1711c3.27,0.342 6.368,1.026 9.466,1.8811c23.062,6.6695 39.412,27.7038 38.035,51.4748c-1.033,20.009 -11.187,34.374 -28.914,43.437c-8.777,4.789 -18.415,5.986 -28.397,5.815c-13.08,-0.171 -24.439,-4.618 -34.249,-13.168c-6.885,-5.986 -12.22,-13.168 -17.211,-20.693c-0.688,-1.026 -1.033,-0.855 -1.721,0.171c-3.098,4.618 -6.368,9.235 -10.154,13.681c-6.712,7.525 -14.457,13.681 -24.0952,16.931c-11.8753,4.104 -23.9228,4.275 -35.9702,1.026c-17.3827,-4.96 -29.2581,-15.905 -35.7981,-32.664c-1.0327,-2.736 -1.549,-5.814 -2.4095,-8.551zM185.7298,213.651c9.81,0.342 18.2432,-2.907 25.4717,-9.576c7.4005,-6.841 12.7355,-15.392 18.0715,-23.771c0.172,-0.513 0.172,-0.855 -0.172,-1.368c-4.475,-7.012 -9.122,-14.023 -15.318,-19.838c-11.8752,-11.2865 -25.8158,-15.0488 -41.4775,-10.0894c-12.908,4.2754 -21.1691,13.3384 -23.0622,27.0194c-1.8932,12.826 3.0979,23.087 13.4242,30.783c6.8843,4.959 14.6291,7.011 23.0623,6.84zM294.845,213.651c3.786,0 7.573,-0.171 11.187,-1.197c13.596,-4.104 22.546,-12.484 25.128,-26.507c2.581,-13.852 -2.754,-24.968 -14.457,-32.834c-12.908,-8.8928 -31.668,-8.0377 -44.748,1.71c-8.777,6.498 -14.629,15.22 -20.481,24.284c-0.344,0.513 -0.172,0.855 0,1.368c4.647,7.353 9.294,14.707 15.318,21.034c7.572,8.038 16.694,12.655 28.053,12.142z" fill="#ffffff" fill-rule="evenodd" stroke-width="1"/><path d="M185.5577,174.831c5.5074,0 11.1869,0.171 16.6943,0c1.3769,0 1.549,0.342 1.549,1.71c-0.1722,1.54 -0.1722,3.079 0,4.618c0.1721,1.368 -0.1722,1.71 -1.7211,1.71h-22.0296c-3.7863,0 -7.5727,-0.171 -11.359,0c-1.2048,0 -1.549,-0.342 -1.549,-1.71c0.1721,-1.539 0.1721,-3.078 0,-4.789c0,-1.197 0.3442,-1.539 1.549,-1.539c5.5074,0.171 11.1869,0 16.8664,0zM293.985,163.886c1.376,0 2.753,0.171 3.958,0c0.861,0 1.205,0.342 1.205,1.197c-0.172,2.395 0,4.789 -0.172,7.183c0,1.197 0.344,1.539 1.549,1.539c2.237,-0.171 4.647,0 7.056,-0.171c1.033,0 1.377,0.171 1.377,1.368v7.867c0,0.855 -0.344,1.197 -1.205,1.197c-2.409,-0.171 -4.819,0 -7.4,-0.171c-1.033,0 -1.377,0.342 -1.377,1.368c0.172,2.394 0,4.788 0.172,7.183c0,1.026 -0.344,1.539 -1.377,1.539c-2.582,-0.171 -5.163,-0.171 -7.745,0c-1.032,0 -1.377,-0.342 -1.377,-1.368c0.172,-2.566 0,-4.96 0.172,-7.525c0,-0.855 -0.344,-1.197 -1.204,-1.197c-2.41,0.171 -4.819,0 -7.229,0.171c-1.377,0 -1.549,-0.513 -1.549,-1.539c0,-2.394 0.172,-4.789 0,-7.183c-0.172,-1.368 0.517,-1.71 1.721,-1.71c2.41,0.171 4.647,0 7.057,0.171c0.86,0 1.204,-0.342 1.204,-1.197c-0.172,-2.394 0,-4.959 -0.172,-7.353c0,-1.027 0.345,-1.369 1.377,-1.369c1.377,0.171 2.582,0 3.959,0z" fill="#ffffff" fill-rule="evenodd" stroke-width="1"/></g></g></svg>