<svg version="1.1" xmlns="http://www.w3.org/2000/svg" xmlns:xlink="http://www.w3.org/1999/xlink" width="254.45595" height="254.06418" viewBox="0,0,254.45595,254.06418"><g transform="translate(-112.77203,-52.96791)"><g data-paper-data="{&quot;isPaintingLayer&quot;:true}" fill-rule="nonzero" stroke="none" stroke-linecap="butt" stroke-linejoin="miter" stroke-miterlimit="10" stroke-dasharray="" stroke-dashoffset="0" style="mix-blend-mode: normal"><path d="M113.16377,259.81661c0,-48.25974 0,-109.12516 0,-157.3849c0,-29.1014 13.61735,-49.46379 42.71877,-49.46379c56.15678,0 110.22154,0 166.37832,0c28.71541,0 44.96712,18.50003 44.96712,47.21544c0,54.40188 0,107.47973 0,161.88162c0,28.06108 -16.90604,44.96712 -44.96712,44.96712c-52.64699,0 -111.48296,0 -164.12995,0c-52.64699,0 -44.96712,-47.2155 -44.96712,-47.2155c0,0 -0.00002,8.23593 -0.00002,0z" fill="#000000" stroke-width="0"/><path d="M307.436,152.668v13.474h13.474v-13.474h6.737v13.474h13.473v6.737h-13.473v13.473h13.473v6.737h-13.473v13.474h-6.737v-13.474h-13.474v13.474h-6.737v-13.474h-13.473v-6.737h13.473v-13.473h-13.473v-6.737h13.473v-13.474zM320.91,172.879h-13.474v13.473h13.474z" fill="#ffffff" stroke-width="1"/><path d="M234.001,85c35.143,0 65.827,19.0863 82.261,47.4561l-0.16,-0.2731l-41.349,23.808c-8.146,-13.7933 -23.081,-23.1018 -40.213,-23.2935l-0.539,-0.003c-26.126,0 -47.3065,21.1795 -47.3065,47.3045c0,8.544 2.2778,16.553 6.239,23.47c8.1541,14.235 23.4825,23.837 41.0675,23.837c17.692,0 33.108,-9.724 41.221,-24.111l-0.197,0.345l41.286,23.918c-16.254,28.13 -46.517,47.157 -81.252,47.536l-1.058,0.006c-35.255,0 -66.0257,-19.204 -82.419,-47.724c-8.0029,-13.923 -12.582,-30.064 -12.582,-47.277c0,-52.4656 42.5323,-94.999 95.001,-94.999z" fill="#ffffff" stroke-width="1"/></g></g></svg>