<svg version="1.1" xmlns="http://www.w3.org/2000/svg" xmlns:xlink="http://www.w3.org/1999/xlink" width="256" height="256" viewBox="0,0,256,256"><g transform="translate(-112,-52)"><g data-paper-data="{&quot;isPaintingLayer&quot;:true}" fill-rule="nonzero" stroke="none" stroke-width="1" stroke-linecap="butt" stroke-linejoin="miter" stroke-miterlimit="10" stroke-dasharray="" stroke-dashoffset="0" style="mix-blend-mode: normal"><path d="M172,308c-33.13708,0 -60,0 -60,0v-256c0,0 26.86292,0 60,0h136c33.13708,0 60,0 60,0v256c0,0 -26.86292,0 -60,0z" fill="#000000"/><path d="M240.096,154.651v31.942h-71.4805l-2.8628,-31.942z" fill="#ffffff"/><path d="M240.095,121.9423h-77.1914l-2.9036,-31.9423h79.985h0.11z" fill="#ffffff"/><path d="M239.948,270.882l-65.4305,-18.164l-4.475,-50.154h14.7785h17.2862l2.2741,25.476l35.5737,9.605l0.14,-0.037v33.233z" fill="#ffffff"/><path d="M239.985,186.593v-31.942h42.103l2.906,-32.7087h-45.009v-31.9423h80.015l-5.767,64.651l-0.779,8.578l-7.506,84.092l-0.48,5.397l-65.483,18.148v-33.231l35.625,-9.616l3.708,-41.426z" fill="#ffffff"/></g></g></svg>