<svg version="1.1" xmlns="http://www.w3.org/2000/svg" xmlns:xlink="http://www.w3.org/1999/xlink" width="254.45595" height="254.06418" viewBox="0,0,254.45595,254.06418"><g transform="translate(-112.77203,-52.96791)"><g data-paper-data="{&quot;isPaintingLayer&quot;:true}" fill-rule="nonzero" stroke="none" stroke-linecap="butt" stroke-linejoin="miter" stroke-miterlimit="10" stroke-dasharray="" stroke-dashoffset="0" style="mix-blend-mode: normal"><path d="M113.16377,259.81661c0,-48.25974 0,-109.12516 0,-157.3849c0,-29.1014 13.61735,-49.46379 42.71877,-49.46379c56.15678,0 110.22154,0 166.37832,0c28.71541,0 44.96712,18.50003 44.96712,47.21544c0,54.40188 0,107.47973 0,161.88162c0,28.06108 -16.90604,44.96712 -44.96712,44.96712c-52.64699,0 -111.48296,0 -164.12995,0c-52.64699,0 -44.96712,-47.2155 -44.96712,-47.2155c0,0 -0.00002,8.23593 -0.00002,0z" fill="#000000" stroke-width="0"/><path d="M179.3117,265.932l19.591,-11.856c3.7794,6.701 7.2175,12.371 15.4643,12.371c7.905,0 12.889,-3.092 12.889,-15.12v-81.798h24.058v82.138c0,24.917 -14.606,36.259 -35.916,36.259c-19.2447,0 -30.4161,-9.967 -36.0867,-21.996" fill="#ffffff" stroke-width="1"/><path d="M264.381,263.354l19.588,-11.341c5.157,8.421 11.859,14.607 23.715,14.607c9.969,0 16.325,-4.984 16.325,-11.858c0,-8.248 -6.53,-11.17 -17.528,-15.98l-6.013,-2.579c-17.357,-7.388 -28.871,-16.668 -28.871,-36.258c0,-18.044 13.748,-31.792 35.229,-31.792c15.294,0 26.292,5.328 34.196,19.247l-18.731,12.029c-4.125,-7.389 -8.591,-10.31 -15.465,-10.31c-7.046,0 -11.514,4.468 -11.514,10.31c0,7.217 4.468,10.139 14.778,14.608l6.014,2.577c20.449,8.765 31.963,17.699 31.963,37.804c0,21.654 -17.012,33.51 -39.867,33.51c-22.339,0 -36.774,-10.654 -43.819,-24.574" fill="#ffffff" stroke-width="1"/></g></g></svg>