<svg version="1.1" xmlns="http://www.w3.org/2000/svg" xmlns:xlink="http://www.w3.org/1999/xlink" width="254.45595" height="254.06418" viewBox="0,0,254.45595,254.06418"><g transform="translate(-112.77203,-52.96791)"><g data-paper-data="{&quot;isPaintingLayer&quot;:true}" fill-rule="nonzero" stroke="none" stroke-linecap="butt" stroke-linejoin="miter" stroke-miterlimit="10" stroke-dasharray="" stroke-dashoffset="0" style="mix-blend-mode: normal"><path d="M113.16377,259.81661c0,-48.25974 0,-109.12516 0,-157.3849c0,-29.1014 13.61735,-49.46379 42.71877,-49.46379c56.15678,0 110.22154,0 166.37832,0c28.71541,0 44.96712,18.50003 44.96712,47.21544c0,54.40188 0,107.47973 0,161.88162c0,28.06108 -16.90604,44.96712 -44.96712,44.96712c-52.64699,0 -111.48296,0 -164.12995,0c-52.64699,0 -44.96712,-47.2155 -44.96712,-47.2155c0,0 -0.00002,8.23593 -0.00002,0z" fill="#000000" stroke-width="0"/><g fill="#ffffff" stroke-width="1"><path d="M176.6656,249.165l-33.3312,-24.999c-1.0392,-0.772 -1.8825,-1.779 -2.4617,-2.936c-0.5792,-1.158 -0.8781,-2.436 -0.8726,-3.73v-75.0001c-0.0055,-1.2947 0.2934,-2.5726 0.8726,-3.7303c0.5792,-1.1579 1.4225,-2.1634 2.4617,-2.9354l33.3312,-25c-0.8954,0.8408 -1.572,1.8874 -1.9712,3.049c-0.3992,1.1617 -0.5088,2.4031 -0.3194,3.6167v125.0001c-0.1894,1.214 -0.0798,2.455 0.3194,3.617c0.3992,1.161 1.0758,2.207 1.9712,3.048z"/><g><path d="M336.289,114.7093c-1.372,-0.902 -2.981,-1.3802 -4.624,-1.3749c-1.064,-0.0086 -2.121,0.1929 -3.108,0.593c-0.986,0.4 -1.884,0.9907 -2.642,1.7382l-0.581,0.5844l-35.42,33.9593l-31.08,29.7907l-36.794,35.291l-34.0407,32.624l-0.5842,0.585c-0.7574,0.748 -1.6553,1.34 -2.642,1.741c-0.9869,0.4 -2.0431,0.602 -3.1081,0.593c-1.8028,-0.004 -3.5563,-0.588 -5,-1.669l-33.3312,-24.999c1.6934,1.271 3.808,1.85 5.9132,1.618c2.1052,-0.232 4.0427,-1.258 5.4181,-2.869l18.6687,-21.665l18.3312,-21.291l30.375,-35.2497l53.209,-61.7937c0.773,-0.9151 1.736,-1.6502 2.823,-2.1539c1.086,-0.5036 2.271,-0.7636 3.467,-0.7617c1.644,-0.0053 3.252,0.4729 4.626,1.375z"/></g><g><path d="M336.289,245.29l-49.999,33.335c-1.701,1.111 -3.745,1.57 -5.758,1.295c-2.013,-0.276 -3.858,-1.268 -5.198,-2.795l-53.294,-61.834l-30.375,-35.332l-18.3312,-21.25l-18.6687,-21.6683c-1.3877,-1.5943 -3.3271,-2.6047 -5.4288,-2.8285c-2.1016,-0.2238 -4.2103,0.3559 -5.9025,1.6222l33.3312,-24.9999c1.4437,-1.0799 3.1972,-1.6652 5,-1.6687c1.065,-0.009 2.1212,0.1926 3.1081,0.5932c0.9867,0.4006 1.8846,0.9924 2.642,1.7412l0.5842,0.5843l34.0407,32.6249l36.794,35.2906l31.124,29.835l35.376,33.915l0.581,0.585c0.758,0.747 1.656,1.337 2.642,1.737c0.987,0.4 2.044,0.602 3.108,0.593c1.643,0.006 3.252,-0.473 4.624,-1.375z"/></g><g><path d="M340,121.6653v116.6677c0.001,1.376 -0.337,2.73 -0.984,3.944c-0.647,1.212 -1.583,2.248 -2.726,3.013l-50,33.334c1.143,-0.765 2.079,-1.801 2.725,-3.015c0.648,-1.214 0.985,-2.568 0.984,-3.944v-183.3309c-0.018,-1.3856 -0.377,-2.7455 -1.046,-3.9593c-0.669,-1.2138 -1.626,-2.2441 -2.788,-3l50.125,33.3342c1.139,0.7681 2.073,1.8039 2.721,3.0166c0.646,1.2127 0.986,2.5654 0.989,3.9397z"/></g></g></g></g></svg>