<svg version="1.1" xmlns="http://www.w3.org/2000/svg" xmlns:xlink="http://www.w3.org/1999/xlink" width="254.45595" height="254.06418" viewBox="0,0,254.45595,254.06418"><g transform="translate(-112.77203,-52.96791)"><g data-paper-data="{&quot;isPaintingLayer&quot;:true}" fill-rule="nonzero" stroke="none" stroke-linecap="butt" stroke-linejoin="miter" stroke-miterlimit="10" stroke-dasharray="" stroke-dashoffset="0" style="mix-blend-mode: normal"><path d="M113.16377,259.81661c0,-48.25974 0,-109.12516 0,-157.3849c0,-29.1014 13.61735,-49.46379 42.71877,-49.46379c56.15678,0 110.22154,0 166.37832,0c28.71541,0 44.96712,18.50003 44.96712,47.21544c0,54.40188 0,107.47973 0,161.88162c0,28.06108 -16.90604,44.96712 -44.96712,44.96712c-52.64699,0 -111.48296,0 -164.12995,0c-52.64699,0 -44.96712,-47.2155 -44.96712,-47.2155c0,0 -0.00002,8.23593 -0.00002,0z" fill="#000000" stroke-width="0"/><path d="M145.7158,152.208c0,0 -4.7344,-3.413 0.9469,-7.9699l13.2367,-11.8361c0,0 3.7875,-3.9848 7.7921,-0.5129l122.1485,92.4789v44.346c0,0 -0.059,6.964 -8.996,6.194z" fill="#ffffff" stroke-width="1"/><path d="M202.3119,203.596l-33.3778,25.309c-5.1289,4.242 -8.6008,0.513 -8.6008,0.513l-14.6176,-13.295c-3.2352,-4.301 0,-6.708 0,-6.708l31.484,-28.623z" fill="#ffffff" stroke-width="1"/><path d="M202.312,158.145l76.836,-69.9311c8.226,-5.0106 10.692,4.6161 10.692,4.6161l0.375,44.1091l-57.741,44.0899z" fill="#ffffff" stroke-width="1"/><path d="M280.47,274.553c5.346,0.809 7.575,-1.124 8.601,-3.195c0.512,-1.066 0.769,-2.249 0.769,-3.453v-175.075c-3.512,-9.7845 -10.692,-4.6161 -10.692,-4.6161c0,0 5.583,-6.2139 14.105,-0.9469l38.999,18.7997c0,0 5.958,2.0121 5.958,7.8315v132.4068c0,0 0.809,4.872 -4.951,8.798l-44.997,22.173c0,0 -4.064,1.124 -7.418,-2.308z" fill="#ffffff" stroke-width="1"/></g></g></svg>