<svg version="1.1" xmlns="http://www.w3.org/2000/svg" xmlns:xlink="http://www.w3.org/1999/xlink" width="229.49702" height="105.297" viewBox="0,0,229.49702,105.297"><defs><linearGradient x1="225.4519" y1="173.08347" x2="214.19852" y2="157.79672" gradientUnits="userSpaceOnUse" id="color-1"><stop offset="0" stop-color="#000000" stop-opacity="0.8"/><stop offset="1" stop-color="#000000" stop-opacity="0"/></linearGradient><linearGradient x1="253.8421" y1="187.53815" x2="265.09547" y2="202.82491" gradientUnits="userSpaceOnUse" id="color-2"><stop offset="0" stop-color="#000000" stop-opacity="0.8"/><stop offset="1" stop-color="#000000" stop-opacity="0"/></linearGradient></defs><g transform="translate(-124.99633,-127.0381)"><g data-paper-data="{&quot;isPaintingLayer&quot;:true}" fill-rule="nonzero" stroke="none" stroke-linecap="butt" stroke-linejoin="miter" stroke-miterlimit="10" stroke-dasharray="" stroke-dashoffset="0" style="mix-blend-mode: normal"><g><path d="M270.96092,232.33509c0,0 -1.4075,-0.14562 -4.07118,-1.76798c-2.53391,-1.54333 -6.26899,-3.87067 -6.26899,-3.87067l-117.98132,-99.6498h61.65393c0,0 1.17629,-0.23644 5.26485,1.77814c4.08856,2.01459 9.77271,5.63141 9.77271,5.63141l117.98133,97.8789z" data-paper-data="{&quot;index&quot;:null}" fill="#41afd3" stroke-width="0"/><path d="M196.13683,172.06752l35.64768,-27.21677l13.42226,11.34656l-34.11385,28.61304z" data-paper-data="{&quot;index&quot;:null}" fill="url(#color-1)" stroke-width="1" opacity="0.75"/><path d="M283.61303,188.21222l-36.10354,27.55867l-12.77647,-11.57449l34.56969,-28.76498z" fill="url(#color-2)" stroke-width="1" opacity="0.75"/><path d="M142.63941,232.33509l117.98133,-97.87889c0,0 5.68415,-3.61682 9.77271,-5.63141c4.08856,-2.01459 5.26485,-1.77814 5.26485,-1.77814h61.65394l-117.98133,99.6498c0,0 -3.73506,2.32735 -6.26899,3.87067c-2.66368,1.62236 -4.07118,1.76798 -4.07118,1.76798z" data-paper-data="{&quot;index&quot;:null}" fill="#41afd3" stroke-width="0"/><path d="M297.99541,232.07146c0,0 17.99147,-25.62697 18.20163,-51.91831c0.21501,-26.89595 -18.15327,-53.1065 -18.15327,-53.1065l38.88789,0.2738c0,0 17.5599,18.78489 17.56169,52.83251c0.00198,37.2819 -17.53861,52.18214 -17.53861,52.18214z" data-paper-data="{&quot;index&quot;:null}" fill="#4fd4ff" stroke-width="0"/><path d="M142.53494,232.33509c0,0 -17.54059,-14.90025 -17.53861,-52.18214c0.00179,-34.04762 17.56169,-52.83251 17.56169,-52.83251l38.88789,-0.2738c0,0 -18.36826,26.21054 -18.15327,53.1065c0.21017,26.29135 18.20163,51.91831 18.20163,51.91831z" fill="#4fd4ff" stroke-width="0"/></g></g></g></svg>